<mxfile host="app.diagrams.net" modified="2022-04-04T08:59:53.488Z" agent="5.0 (Windows NT 10.0; Win64; x64) AppleWebKit/537.36 (KHTML, like Gecko) Chrome/100.0.4896.60 Safari/537.36" etag="YLAOUNZjzWVATanrAIfn" version="17.4.0" type="github">
  <diagram id="kgpKYQtTHZ0yAKxKKP6v" name="Page-1">
    <mxGraphModel dx="1422" dy="839" grid="1" gridSize="10" guides="1" tooltips="1" connect="1" arrows="1" fold="1" page="1" pageScale="1" pageWidth="850" pageHeight="1100" math="0" shadow="0">
      <root>
        <mxCell id="0" />
        <mxCell id="1" parent="0" />
        <mxCell id="3nuBFxr9cyL0pnOWT2aG-1" value="로그인 UI" style="shape=umlLifeline;perimeter=lifelinePerimeter;container=1;collapsible=0;recursiveResize=0;rounded=0;shadow=0;strokeWidth=1;" parent="1" vertex="1">
          <mxGeometry x="190" y="120" width="100" height="480" as="geometry" />
        </mxCell>
        <mxCell id="0hsy9lNTJnrRaFfwjlta-26" value="" style="html=1;points=[];perimeter=orthogonalPerimeter;" vertex="1" parent="3nuBFxr9cyL0pnOWT2aG-1">
          <mxGeometry x="45" y="70" width="10" height="230" as="geometry" />
        </mxCell>
        <mxCell id="3nuBFxr9cyL0pnOWT2aG-5" value="server?&#xa;Dao?" style="shape=umlLifeline;perimeter=lifelinePerimeter;container=1;collapsible=0;recursiveResize=0;rounded=0;shadow=0;strokeWidth=1;" parent="1" vertex="1">
          <mxGeometry x="380" y="120" width="100" height="480" as="geometry" />
        </mxCell>
        <mxCell id="0hsy9lNTJnrRaFfwjlta-31" value="" style="html=1;points=[];perimeter=orthogonalPerimeter;" vertex="1" parent="3nuBFxr9cyL0pnOWT2aG-5">
          <mxGeometry x="45" y="70" width="10" height="240" as="geometry" />
        </mxCell>
        <mxCell id="0hsy9lNTJnrRaFfwjlta-22" value="" style="shape=umlLifeline;participant=umlActor;perimeter=lifelinePerimeter;whiteSpace=wrap;html=1;container=1;collapsible=0;recursiveResize=0;verticalAlign=top;spacingTop=36;outlineConnect=0;" vertex="1" parent="1">
          <mxGeometry x="40" y="120" width="40" height="480" as="geometry" />
        </mxCell>
        <mxCell id="0hsy9lNTJnrRaFfwjlta-27" value="ID/PW 입력" style="html=1;verticalAlign=bottom;endArrow=block;entryX=0;entryY=0;rounded=0;" edge="1" target="0hsy9lNTJnrRaFfwjlta-26" parent="1" source="0hsy9lNTJnrRaFfwjlta-22">
          <mxGeometry x="-0.0557" relative="1" as="geometry">
            <mxPoint x="160" y="220" as="sourcePoint" />
            <mxPoint as="offset" />
          </mxGeometry>
        </mxCell>
        <mxCell id="0hsy9lNTJnrRaFfwjlta-28" value="return" style="html=1;verticalAlign=bottom;endArrow=open;dashed=1;endSize=8;exitX=0;exitY=0.95;rounded=0;" edge="1" source="0hsy9lNTJnrRaFfwjlta-26" parent="1" target="0hsy9lNTJnrRaFfwjlta-22">
          <mxGeometry relative="1" as="geometry">
            <mxPoint x="160" y="296" as="targetPoint" />
          </mxGeometry>
        </mxCell>
        <mxCell id="0hsy9lNTJnrRaFfwjlta-29" value="DB" style="shape=umlLifeline;perimeter=lifelinePerimeter;whiteSpace=wrap;html=1;container=1;collapsible=0;recursiveResize=0;outlineConnect=0;" vertex="1" parent="1">
          <mxGeometry x="580" y="120" width="100" height="480" as="geometry" />
        </mxCell>
        <mxCell id="0hsy9lNTJnrRaFfwjlta-32" value="" style="html=1;points=[];perimeter=orthogonalPerimeter;" vertex="1" parent="0hsy9lNTJnrRaFfwjlta-29">
          <mxGeometry x="45" y="70" width="10" height="240" as="geometry" />
        </mxCell>
        <mxCell id="0hsy9lNTJnrRaFfwjlta-36" value="검사" style="html=1;verticalAlign=bottom;endArrow=block;rounded=0;entryX=1.5;entryY=0.582;entryDx=0;entryDy=0;entryPerimeter=0;exitX=0.9;exitY=0.412;exitDx=0;exitDy=0;exitPerimeter=0;" edge="1" parent="0hsy9lNTJnrRaFfwjlta-29" source="0hsy9lNTJnrRaFfwjlta-32" target="0hsy9lNTJnrRaFfwjlta-32">
          <mxGeometry x="0.3727" y="-10" width="80" relative="1" as="geometry">
            <mxPoint x="60" y="140" as="sourcePoint" />
            <mxPoint x="170" y="149.5" as="targetPoint" />
            <Array as="points">
              <mxPoint x="90" y="170" />
              <mxPoint x="90" y="210" />
            </Array>
            <mxPoint x="1" as="offset" />
          </mxGeometry>
        </mxCell>
        <mxCell id="0hsy9lNTJnrRaFfwjlta-30" value="ID/PW 전송" style="html=1;verticalAlign=bottom;endArrow=block;rounded=0;exitX=1.3;exitY=0.236;exitDx=0;exitDy=0;exitPerimeter=0;entryX=0.1;entryY=0.221;entryDx=0;entryDy=0;entryPerimeter=0;" edge="1" parent="1" source="0hsy9lNTJnrRaFfwjlta-26" target="0hsy9lNTJnrRaFfwjlta-31">
          <mxGeometry width="80" relative="1" as="geometry">
            <mxPoint x="380" y="420" as="sourcePoint" />
            <mxPoint x="420" y="244" as="targetPoint" />
          </mxGeometry>
        </mxCell>
        <mxCell id="0hsy9lNTJnrRaFfwjlta-33" value="Check ID/PW" style="html=1;verticalAlign=bottom;endArrow=block;rounded=0;exitX=1.1;exitY=0.371;exitDx=0;exitDy=0;exitPerimeter=0;entryX=0;entryY=0.379;entryDx=0;entryDy=0;entryPerimeter=0;" edge="1" parent="1" source="0hsy9lNTJnrRaFfwjlta-31" target="0hsy9lNTJnrRaFfwjlta-32">
          <mxGeometry width="80" relative="1" as="geometry">
            <mxPoint x="380" y="420" as="sourcePoint" />
            <mxPoint x="570" y="279" as="targetPoint" />
          </mxGeometry>
        </mxCell>
        <mxCell id="0hsy9lNTJnrRaFfwjlta-34" value="User" style="text;html=1;align=center;verticalAlign=middle;resizable=0;points=[];autosize=1;strokeColor=none;fillColor=none;" vertex="1" parent="1">
          <mxGeometry x="40" y="100" width="40" height="20" as="geometry" />
        </mxCell>
      </root>
    </mxGraphModel>
  </diagram>
</mxfile>
